<svg width="95" height="96" viewBox="0 0 95 96" fill="none" xmlns="http://www.w3.org/2000/svg">
<path d="M22.2441 45.9661H35.4519C36.9859 45.9661 38.2968 47.0806 38.5382 48.6C39.3661 53.8006 42 65.4976 49.5586 72.6101C59.1444 81.6305 71.7576 84.3803 76.7798 85.1491C77.9648 85.3301 78.7481 86.4793 78.4863 87.6528C78.3017 88.4888 77.561 89.0847 76.7067 89.0847H11.7939C10.0712 89.0847 8.82322 87.4373 9.28587 85.7756L19.8274 47.8088C20.1297 46.7186 21.1179 45.9661 22.2441 45.9661Z" fill="#EFECFF"/>
<path d="M5.52576 29.5526C5.52576 27.3845 7.27895 25.6272 9.44203 25.6272H25.931C28.2219 25.6272 30.0786 27.4882 30.0786 29.7845C30.0786 32.3187 32.128 34.373 34.6564 34.373H73.8232C75.2152 34.373 76.7493 34.5763 76.3434 39.3397V42.4679L19.7055 42.834C18.6057 42.8848 16.9053 43.3201 16.4832 44.3391L5.52576 78.3052V29.5526Z" fill="#EFECFF"/>
<path d="M3.20243 92.5567C3.92481 93.4191 5.00838 93.9662 6.21776 93.9662H76.3009C78.4985 93.9662 80.4384 92.4814 81.0187 90.356L92.6093 47.8699C92.867 46.9242 92.6742 45.9357 92.0817 45.1567C91.4892 44.3777 90.5882 43.9303 89.6102 43.9303H20.0445C18.1655 43.9303 16.5056 45.1994 16.0105 47.0177L3.25519 92.4123C3.24098 92.4611 3.22475 92.5099 3.20243 92.5567ZM76.3009 96.0001H6.21776C2.92646 96.0001 0.25 93.3174 0.25 90.0184V26.9167C0.25 23.514 3.01169 20.7458 6.40647 20.7458H29.9021C32.3493 20.7458 34.3399 22.7411 34.3399 25.194V26.3797C34.3399 28.2082 35.8232 29.695 37.6474 29.695H76.7432C79.5435 29.695 81.8243 31.9791 81.8243 34.7879V38.4408C81.8243 39.0021 81.3697 39.4577 80.8097 39.4577C80.2496 39.4577 79.7951 39.0021 79.7951 38.4408V34.7879C79.7951 33.1018 78.4254 31.7289 76.7432 31.7289H37.6474C34.7051 31.7289 32.3107 29.3289 32.3107 26.3797V25.194C32.3107 23.8638 31.2312 22.7797 29.9021 22.7797H6.40647C4.13178 22.7797 2.27916 24.6367 2.27916 26.9167V88.3852L14.0564 46.4767C14.7889 43.7838 17.2523 41.8984 20.0445 41.8984H89.6081C91.2233 41.8984 92.7127 42.6367 93.6928 43.9242C94.6729 45.2116 94.9915 46.8448 94.5654 48.4069L82.9748 90.893C82.155 93.8991 79.4096 96.0001 76.3009 96.0001Z" fill="#5E44FF"/>
<path d="M53.9436 22.4826C54.3312 22.8894 54.317 23.5321 53.9132 23.9206C53.7163 24.1097 53.4627 24.2033 53.2111 24.2033C52.9432 24.2033 52.6774 24.0975 52.4786 23.8901L48.6455 19.8772L44.8124 23.8901C44.6135 24.0975 44.3477 24.2033 44.0799 24.2033C43.8282 24.2033 43.5746 24.1097 43.3778 23.9206C42.974 23.5321 42.9598 22.8894 43.3473 22.4826L47.2413 18.4067L43.3473 14.3308C42.9598 13.924 42.974 13.2813 43.3778 12.8928C43.7836 12.5043 44.4248 12.5186 44.8124 12.9233L48.6455 16.9362L52.4786 12.9233C52.8661 12.5186 53.5073 12.5043 53.9132 12.8928C54.317 13.2813 54.3312 13.924 53.9436 14.3308L50.0496 18.4067L53.9436 22.4826Z" fill="#5E44FF"/>
<path d="M37.485 1.42373C38.7715 1.42373 39.8186 2.47322 39.8186 3.76271C39.8186 5.0522 38.7715 6.10169 37.485 6.10169C36.1985 6.10169 35.1515 5.0522 35.1515 3.76271C35.1515 2.47322 36.1985 1.42373 37.485 1.42373ZM37.485 0C35.4112 0 33.7311 1.68407 33.7311 3.76271C33.7311 5.84136 35.4112 7.52542 37.485 7.52542C39.5588 7.52542 41.239 5.84136 41.239 3.76271C41.239 1.68407 39.5588 0 37.485 0Z" fill="#8E7CFF"/>
<path d="M67.7195 23.3899C69.7928 23.3899 71.4735 21.7053 71.4735 19.6272C71.4735 17.5491 69.7928 15.8645 67.7195 15.8645C65.6463 15.8645 63.9656 17.5491 63.9656 19.6272C63.9656 21.7053 65.6463 23.3899 67.7195 23.3899Z" fill="#5E44FF"/>
</svg>
