<svg width="24" height="24" viewBox="0 0 24 24" fill="none" xmlns="http://www.w3.org/2000/svg">
<path d="M12 0C18.6278 0 24 5.37225 24 12C24 18.6278 18.6278 24 12 24C5.37225 24 0 18.6278 0 12C0 5.37225 5.37225 0 12 0ZM14.514 4.17C14.331 4.08 14.148 4.17 14.103 4.35225C14.0573 4.398 14.0573 4.44375 14.0573 4.5345V5.172L14.0648 5.25C14.1039 5.4043 14.1987 5.53866 14.331 5.62725C17.8965 6.90225 19.725 10.8623 18.399 14.367C17.7135 16.2795 16.2052 17.7353 14.331 18.4185C14.148 18.5093 14.0573 18.6458 14.0573 18.8738V19.5112L14.061 19.5773C14.0681 19.6493 14.0982 19.7171 14.1468 19.7707C14.1955 19.8243 14.26 19.8609 14.331 19.875C14.3767 19.875 14.4682 19.875 14.514 19.83C15.5427 19.5088 16.4977 18.9872 17.3239 18.2954C18.1502 17.6035 18.8315 16.7551 19.3285 15.7989C19.8255 14.8427 20.1285 13.7976 20.22 12.7238C20.3115 11.65 20.1896 10.5688 19.8615 9.54225C19.0395 6.94725 17.028 4.98975 14.514 4.17075V4.17ZM9.669 4.125C9.62325 4.125 9.53175 4.125 9.486 4.17C8.45732 4.49124 7.50235 5.0128 6.67607 5.70463C5.84978 6.39646 5.16851 7.24491 4.67148 8.20112C4.17445 9.15733 3.87148 10.2024 3.78001 11.2762C3.68853 12.35 3.81037 13.4312 4.1385 14.4578C4.9605 17.0077 6.92625 18.9653 9.486 19.7843C9.669 19.875 9.852 19.7843 9.897 19.602C9.94275 19.557 9.94275 19.5105 9.94275 19.4198V18.7822L9.93525 18.7222C9.90375 18.5955 9.786 18.4508 9.669 18.3727C6.1035 17.0977 4.275 13.1377 5.601 9.633C6.2865 7.7205 7.79475 6.26475 9.669 5.5815C9.852 5.49075 9.94275 5.35425 9.94275 5.12625V4.48875L9.939 4.42275C9.93187 4.35073 9.90177 4.28291 9.85316 4.2293C9.80454 4.17569 9.73998 4.13912 9.669 4.125ZM12.3202 6.492H11.634L11.568 6.498C11.418 6.528 11.3085 6.657 11.268 6.8565V7.9035L11.1128 7.9275C9.83175 8.1555 9.02925 9.03975 9.02925 10.134C9.02925 11.6355 9.94275 12.2273 11.8628 12.4552C13.143 12.6825 13.554 12.9563 13.554 13.6845C13.554 14.412 12.9143 14.913 12.0458 14.913C10.857 14.913 10.446 14.4128 10.3088 13.7295C10.2638 13.548 10.1257 13.4565 9.9885 13.4565H9.2115L9.15225 13.4618C9.07829 13.4737 9.01117 13.512 8.96332 13.5697C8.91547 13.6273 8.89013 13.7004 8.892 13.7753V13.8202L8.91675 13.9552C9.13425 15.0233 9.86625 15.7875 11.3145 16.0057V17.0985L11.3205 17.1645C11.3505 17.313 11.4803 17.4225 11.6805 17.4622H12.366L12.432 17.4562C12.582 17.4263 12.6915 17.2973 12.732 17.0985V16.005L12.8873 15.975C14.172 15.7035 15.0173 14.7742 15.0173 13.5922C15.0173 11.9992 14.0573 11.4532 12.1373 11.2253C10.7655 11.043 10.4918 10.6792 10.4918 10.0417C10.4918 9.40425 10.9493 8.99475 11.8628 8.99475C12.6855 8.99475 13.143 9.26775 13.371 9.951C13.3948 10.0171 13.4382 10.0743 13.4954 10.1149C13.5527 10.1555 13.621 10.1776 13.6912 10.1783H14.4225L14.4818 10.1737C14.556 10.1619 14.6234 10.1236 14.6714 10.0657C14.7194 10.0079 14.7448 9.93463 14.7428 9.8595V9.8145L14.715 9.68475C14.6024 9.21856 14.3456 8.79975 13.9813 8.4879C13.6169 8.17605 13.1635 7.98704 12.6855 7.94775V6.8565L12.6795 6.7905C12.6495 6.64125 12.5198 6.53175 12.3195 6.492H12.3202Z" fill="#5E44FF"/>
</svg>
