<svg width="126" height="32" viewBox="0 0 126 32" fill="none" xmlns="http://www.w3.org/2000/svg">
<g clip-path="url(#clip0_789_861)">
<path d="M28.4043 32.0108H3.60865C1.61514 32.0108 0 30.3957 0 28.4043V3.60865C0 1.61514 1.61514 0 3.60865 0H28.4043C30.3978 0 32.013 1.61514 32.013 3.60865V28.4043C32.0108 30.3957 30.3957 32.0108 28.4043 32.0108Z" fill="#12027A"/>
<path d="M12.0627 15.9762L9.7254 14.5989L7.27783 16.0195L9.61729 17.3968L12.0627 15.9762Z" fill="white"/>
<path d="M16.1643 3.66919L5.32972 9.86378V14.8714L7.27783 16.0195L9.72539 14.5989L7.72972 13.4227V11.1568L16.1103 6.35892L24.2811 11.2086V20.6984L16.1643 25.5481L14.5297 24.7049V17.4292L12.0627 15.9762L9.61729 17.3968L12.1319 18.8778V23.3059L7.70377 20.7243V18.5103L9.61729 17.3968L7.27783 16.0195L5.30377 17.1654V22.067L16.1103 28.3416L26.707 22.227V9.88973L16.1643 3.66919Z" fill="white"/>
<path d="M16.1384 13.6065L18.5103 15.1351V23.0443L20.8303 21.6735V13.7643L16.1103 10.8929L9.7254 14.5989L12.0627 15.9762L16.1384 13.6065Z" fill="white"/>
<path d="M37.3189 27.6302V23.8761L45.8698 14.8232H37.923V10.7299H51.8057V14.4867L43.3569 23.5396H52.0761V27.6302H37.3189Z" fill="#12027A"/>
<path d="M54.8565 3.89191H60.0532V8.61971H54.8565V3.89191ZM54.9558 27.6302V10.7298H59.8849V27.6302H54.9558Z" fill="#12027A"/>
<path d="M74.2366 27.462C73.365 27.7516 72.4465 27.8978 71.4866 27.8978C69.564 27.8978 68.011 27.3848 66.825 26.3559C65.6389 25.327 65.0486 23.8292 65.0486 21.8625V14.8205H62.3675V10.7299H65.0486V5.83655H69.9777V10.7326H74.0684V14.8232H69.9777V21.2281C69.9777 21.9646 70.1626 22.5466 70.5322 22.9714C70.9018 23.3962 71.3873 23.6086 71.9913 23.6086C72.7499 23.6086 73.3871 23.4734 73.9029 23.2059L74.2366 27.462Z" fill="#12027A"/>
<path d="M92.9134 18.7456C92.9134 19.4821 92.8913 20.0972 92.8472 20.5909H80.7104C81.2014 22.7369 82.5199 23.8099 84.6659 23.8099C86.4754 23.8099 87.5704 23.0845 87.9511 21.6308L92.5796 22.8721C92.0886 24.4609 91.126 25.6938 89.6971 26.5765C88.2655 27.4592 86.5443 27.9005 84.5335 27.9005C81.8055 27.9005 79.6761 27.0234 78.1452 25.2691C76.6143 23.5148 75.8475 21.4846 75.8475 19.1841C75.8475 17.7084 76.1261 16.3348 76.686 15.0604C77.246 13.7861 78.1783 12.702 79.4857 11.8083C80.7932 10.9146 82.3737 10.4678 84.2301 10.4678C85.6837 10.4678 86.9857 10.7188 88.1359 11.2236C89.2861 11.7256 90.1991 12.3931 90.8694 13.2178C91.5397 14.0453 92.0472 14.928 92.3948 15.8659C92.7396 16.8009 92.9134 17.7608 92.9134 18.7456ZM80.7739 17.1016H87.6477C87.5567 16.2079 87.2284 15.488 86.6574 14.9391C86.0865 14.3929 85.2783 14.1171 84.2273 14.1171C82.393 14.1171 81.2428 15.1128 80.7739 17.1016Z" fill="#12027A"/>
<path d="M107.295 15.4576C106.713 15.1901 105.999 15.0549 105.149 15.0549C103.919 15.0549 102.89 15.5735 102.066 16.6134C101.238 17.6533 100.824 19.2917 100.824 21.526V27.6275H95.8951V10.7298H100.824V13.6482C101.205 12.7545 101.875 11.9987 102.835 11.3836C103.795 10.7685 104.78 10.4623 105.787 10.4623C106.501 10.4623 107.105 10.5505 107.596 10.7298L107.295 15.4576Z" fill="#12027A"/>
<path d="M125.572 18.7456C125.572 19.4821 125.55 20.0972 125.506 20.5909H113.369C113.86 22.7369 115.179 23.8099 117.325 23.8099C119.134 23.8099 120.229 23.0845 120.61 21.6308L125.238 22.8721C124.747 24.4609 123.785 25.6938 122.356 26.5765C120.924 27.4592 119.203 27.9005 117.192 27.9005C114.464 27.9005 112.335 27.0234 110.804 25.2691C109.273 23.5148 108.506 21.4846 108.506 19.1841C108.506 17.7084 108.785 16.3348 109.345 15.0604C109.905 13.7861 110.837 12.702 112.145 11.8083C113.452 10.9146 115.033 10.4678 116.889 10.4678C118.343 10.4678 119.645 10.7188 120.795 11.2236C121.945 11.7256 122.858 12.3931 123.528 13.2178C124.199 14.0453 124.706 14.928 125.054 15.8659C125.398 16.8009 125.572 17.7608 125.572 18.7456ZM113.433 17.1016H120.307C120.215 16.2079 119.887 15.488 119.316 14.9391C118.745 14.3929 117.937 14.1171 116.886 14.1171C115.052 14.1171 113.902 15.1128 113.433 17.1016Z" fill="#12027A"/>
</g>
<defs>
<clipPath id="clip0_789_861">
<rect width="125.622" height="32" fill="white"/>
</clipPath>
</defs>
</svg>
