<svg width="140" height="26" viewBox="0 0 140 26" fill="none" xmlns="http://www.w3.org/2000/svg">
<path d="M13.5098 0H13.0073C5.82326 0 0 5.821 0 13V26H13.5098C20.6916 26 26.5149 20.179 26.5149 13C26.5149 5.821 20.6916 0 13.5098 0ZM20.7249 13C20.7249 17.1229 17.3808 20.4657 13.2563 20.4657H5.78991V13C5.78991 8.87707 9.134 5.53428 13.2585 5.53428C17.3808 5.5365 20.7249 8.87707 20.7249 13Z" fill="#5E44FF"/>
<path d="M51.5958 23.9293H46.715L41.5562 15.0636H38.1582V23.9293H33.957L33.9261 2.30554H42.2667C44.3879 2.30554 46.0817 2.88732 47.3483 4.05089C48.6148 5.21445 49.2481 6.76415 49.2481 8.7C49.2481 9.91505 48.9495 11.0117 48.3522 11.9899C47.755 12.9681 46.9209 13.7249 45.85 14.2604L51.5958 23.9293ZM38.1582 5.9198V11.4467H41.618C42.6889 11.4467 43.5229 11.2047 44.1201 10.7208C44.7174 10.2368 45.016 9.56237 45.016 8.69742C45.016 7.83247 44.7174 7.15287 44.1201 6.65861C43.5229 6.16435 42.6889 5.91722 41.618 5.91722H38.1582V5.9198Z" fill="#5E44FF"/>
<path d="M59.5349 8.11096C61.6149 8.11096 63.2778 8.66185 64.5238 9.76364C65.7697 10.8654 66.3927 12.4254 66.3927 14.4436V23.9272H62.624V21.6721C62.1915 22.4341 61.5479 23.0417 60.6933 23.4947C59.8386 23.9478 58.9273 24.1743 57.9594 24.1743C56.4355 24.1743 55.1895 23.7367 54.2216 22.8615C53.2537 21.9862 52.7697 20.8793 52.7697 19.5407C52.7697 16.5751 55.0865 14.8452 59.7202 14.351L62.624 14.0729V13.9185C62.624 13.0329 62.346 12.3379 61.7899 11.8333C61.2339 11.3288 60.4822 11.0765 59.5349 11.0765C58.6905 11.0765 57.9852 11.3236 57.4188 11.8179C56.8525 12.3121 56.5281 12.9712 56.4458 13.7949L52.986 13.1771C53.2331 11.6531 53.9693 10.4278 55.1947 9.50106C56.42 8.5769 57.8667 8.11096 59.5349 8.11096ZM58.8244 21.304C59.9982 21.304 60.925 20.9127 61.6046 20.1302C62.2842 19.3476 62.624 18.3694 62.624 17.1955V16.8531L59.6584 17.1929C58.6493 17.3165 57.877 17.5739 57.3416 17.9652C56.8061 18.3565 56.5384 18.8405 56.5384 19.4171C56.5384 19.9731 56.7444 20.4262 57.1562 20.7763C57.5681 21.129 58.1242 21.304 58.8244 21.304Z" fill="#5E44FF"/>
<path d="M76.7721 24.1788C74.4655 24.1788 72.6533 23.4426 71.3352 21.9701C70.0172 20.4976 69.3582 18.5566 69.3582 16.1471C69.3582 13.7376 70.0172 11.7966 71.3352 10.3242C72.6533 8.85168 74.4449 8.11545 76.7103 8.11545C78.7079 8.11545 80.2113 8.77446 81.2204 10.0925V2.06079H85.1127V23.9317H81.2204V22.14C80.8291 22.7578 80.2319 23.2521 79.4287 23.6228C78.6255 23.9935 77.74 24.1788 76.7721 24.1788ZM77.3281 20.8117C78.5844 20.8117 79.5883 20.3844 80.34 19.5297C81.0917 18.675 81.4675 17.5475 81.4675 16.1471C81.4675 14.7467 81.0917 13.6192 80.34 12.7646C79.5883 11.9099 78.5844 11.4826 77.3281 11.4826C76.0925 11.4826 75.0988 11.9099 74.3471 12.7646C73.5954 13.6192 73.2196 14.7467 73.2196 16.1471C73.2196 17.5475 73.5954 18.675 74.3471 19.5297C75.0962 20.3844 76.0925 20.8117 77.3281 20.8117Z" fill="#5E44FF"/>
<path d="M103.555 15.6175C103.555 16.2353 103.534 16.7502 103.493 17.1621H91.9395C92.1043 18.3359 92.547 19.2523 93.2678 19.9114C93.9886 20.5704 94.9051 20.8999 96.0171 20.8999C96.9233 20.8999 97.6853 20.6939 98.3031 20.282C98.9209 19.8702 99.3328 19.2832 99.5387 18.5213L103.184 19.5098C102.751 20.9719 101.897 22.1149 100.62 22.9387C99.3431 23.7624 97.7882 24.1743 95.9554 24.1743C93.5047 24.1743 91.574 23.3763 90.1633 21.7803C88.7526 20.1842 88.0472 18.305 88.0472 16.1426C88.0472 13.9597 88.7217 12.0753 90.0706 10.4896C91.4195 8.90383 93.309 8.11096 95.7391 8.11096C98.2104 8.11096 100.131 8.86779 101.5 10.3815C102.867 11.8977 103.555 13.643 103.555 15.6175ZM92.0296 14.3201H99.3817C99.2787 13.3521 98.9183 12.5696 98.3005 11.9723C97.6827 11.3751 96.828 11.0765 95.7365 11.0765C94.7686 11.0765 93.9603 11.3545 93.3116 11.9106C92.6629 12.4692 92.2356 13.2698 92.0296 14.3201Z" fill="#5E44FF"/>
<path d="M106.487 23.9298V8.35809H110.379V10.7058C110.894 9.92324 111.579 9.29512 112.433 8.82146C113.288 8.34779 114.251 8.11096 115.322 8.11096C117.031 8.11096 118.406 8.62581 119.446 9.65552C120.486 10.6852 121.006 12.0444 121.006 13.7331V23.9272H117.113V14.6599C117.113 13.7331 116.846 12.9866 116.31 12.4203C115.775 11.8539 115.054 11.5708 114.148 11.5708C112.953 11.5708 112.026 12.0547 111.367 13.0226C110.708 13.9906 110.379 15.3498 110.379 17.1003V23.9272H106.487V23.9298Z" fill="#5E44FF"/>
<path d="M139.139 8.36072V23.9298H135.246V21.5821C134.731 22.3647 134.047 22.9928 133.192 23.4665C132.337 23.9401 131.375 24.177 130.304 24.177C128.615 24.177 127.246 23.6621 126.195 22.6324C125.145 21.6027 124.62 20.2435 124.62 18.5548V8.36072H128.512V17.628C128.512 18.5548 128.78 19.3013 129.315 19.8677C129.851 20.434 130.571 20.7172 131.478 20.7172C132.672 20.7172 133.599 20.2332 134.258 19.2653C134.917 18.2974 135.246 16.9381 135.246 15.1877V8.36072H139.139Z" fill="#5E44FF"/>
</svg>
