<svg width="95" height="24" viewBox="0 0 95 24" fill="none" xmlns="http://www.w3.org/2000/svg">
<g clip-path="url(#clip0_789_1033)">
<path d="M21.3032 24.0081H2.70649C1.21135 24.0081 0 22.7968 0 21.3032V2.70649C0 1.21135 1.21135 0 2.70649 0H21.3032C22.7984 0 24.0097 1.21135 24.0097 2.70649V21.3032C24.0081 22.7968 22.7968 24.0081 21.3032 24.0081Z" fill="white"/>
<path d="M9.04702 11.9822L7.29405 10.9492L5.45837 12.0146L7.21297 13.0476L9.04702 11.9822Z" fill="#454A75"/>
<path d="M12.1233 2.75195L3.9973 7.3979V11.1536L5.45838 12.0147L7.29406 10.9492L5.7973 10.0671V8.36763L12.0827 4.76925L18.2108 8.40655V15.5238L12.1233 19.1611L10.8973 18.5287V13.072L9.04703 11.9822L7.21298 13.0476L9.09893 14.1584V17.4795L5.77784 15.5433V13.8828L7.21298 13.0476L5.45838 12.0147L3.97784 12.8741V16.5503L12.0827 21.2563L20.0303 16.6703V7.41736L12.1233 2.75195Z" fill="#454A75"/>
<path d="M12.1038 10.2048L13.8827 11.3513V17.2832L15.6227 16.2551V10.3232L12.0827 8.16968L7.29407 10.9491L9.04704 11.9821L12.1038 10.2048Z" fill="#454A75"/>
<path d="M27.9892 18.8525V16.6619L32.979 11.3791H28.3417V8.99048H36.4428V11.1828L31.5126 16.4655H36.6006V18.8525H27.9892Z" fill="white"/>
<path d="M38.2231 5H41.2556V7.75886H38.2231V5ZM38.281 18.8523V8.99021H41.1574V18.8523H38.281Z" fill="white"/>
<path d="M49.5323 18.7543C49.0236 18.9233 48.4876 19.0086 47.9275 19.0086C46.8056 19.0086 45.8994 18.7092 45.2073 18.1089C44.5151 17.5085 44.1707 16.6345 44.1707 15.4868V11.3775H42.6061V8.99045H44.1707V6.13501H47.047V8.99206H49.4341V11.3791H47.047V15.1166C47.047 15.5464 47.1549 15.886 47.3706 16.1339C47.5863 16.3818 47.8695 16.5057 48.222 16.5057C48.6647 16.5057 49.0365 16.4268 49.3375 16.2707L49.5323 18.7543Z" fill="white"/>
<path d="M60.4309 13.6678C60.4309 14.0976 60.418 14.4565 60.3922 14.7447H53.31C53.5965 15.9969 54.3659 16.6231 55.6181 16.6231C56.674 16.6231 57.313 16.1997 57.5352 15.3515L60.2361 16.0758C59.9496 17.0029 59.3878 17.7224 58.5541 18.2375C57.7187 18.7526 56.7143 19.0101 55.5409 19.0101C53.949 19.0101 52.7064 18.4983 51.813 17.4745C50.9197 16.4508 50.4722 15.2662 50.4722 13.9238C50.4722 13.0626 50.6348 12.261 50.9616 11.5174C51.2883 10.7738 51.8323 10.1412 52.5953 9.61967C53.3583 9.09816 54.2806 8.8374 55.3638 8.8374C56.2121 8.8374 56.9718 8.98388 57.643 9.27843C58.3142 9.57138 58.847 9.96091 59.2381 10.4422C59.6293 10.9251 59.9254 11.4401 60.1282 11.9874C60.3294 12.5331 60.4309 13.0932 60.4309 13.6678ZM53.347 12.7085H57.3581C57.305 12.187 57.1135 11.7669 56.7803 11.4466C56.4471 11.1279 55.9755 10.9669 55.3622 10.9669C54.2918 10.9669 53.6206 11.548 53.347 12.7085Z" fill="white"/>
<path d="M68.8233 11.7492C68.4837 11.5931 68.0668 11.5142 67.5711 11.5142C66.8532 11.5142 66.2528 11.8168 65.7715 12.4236C65.2886 13.0305 65.0472 13.9866 65.0472 15.2904V18.8508H62.1708V8.99036H65.0472V10.6933C65.2693 10.1718 65.6605 9.73078 66.2206 9.37184C66.7807 9.01289 67.3554 8.83423 67.9429 8.83423C68.3598 8.83423 68.7123 8.88574 68.9988 8.99036L68.8233 11.7492Z" fill="white"/>
<path d="M79.4886 13.6678C79.4886 14.0976 79.4757 14.4565 79.45 14.7447H72.3677C72.6542 15.9969 73.4236 16.6231 74.6759 16.6231C75.7318 16.6231 76.3708 16.1997 76.5929 15.3515L79.2938 16.0758C79.0073 17.0029 78.4456 17.7224 77.6118 18.2375C76.7764 18.7526 75.772 19.0101 74.5986 19.0101C73.0067 19.0101 71.7641 18.4983 70.8708 17.4745C69.9774 16.4508 69.53 15.2662 69.53 13.9238C69.53 13.0626 69.6925 12.261 70.0193 11.5174C70.346 10.7738 70.8901 10.1412 71.653 9.61967C72.416 9.09816 73.3383 8.8374 74.4216 8.8374C75.2698 8.8374 76.0296 8.98388 76.7008 9.27843C77.372 9.57138 77.9047 9.96091 78.2959 10.4422C78.687 10.9251 78.9832 11.4401 79.186 11.9874C79.3872 12.5331 79.4886 13.0932 79.4886 13.6678ZM72.4047 12.7085H76.4159C76.3627 12.187 76.1712 11.7669 75.838 11.4466C75.5048 11.1279 75.0332 10.9669 74.4199 10.9669C73.3496 10.9669 72.6784 11.548 72.4047 12.7085Z" fill="white"/>
</g>
<defs>
<clipPath id="clip0_789_1033">
<rect width="94.2162" height="24" fill="white"/>
</clipPath>
</defs>
</svg>
