<svg width="108" height="20" viewBox="0 0 108 20" fill="none" xmlns="http://www.w3.org/2000/svg">
<path d="M10.3921 0H10.0056C4.47943 0 0 4.47769 0 10V20H10.3921C15.9166 20 20.396 15.5223 20.396 10C20.396 4.47769 15.9166 0 10.3921 0ZM15.9423 10C15.9423 13.1715 13.3699 15.7429 10.1972 15.7429H4.45378V10C4.45378 6.82852 7.02616 4.25714 10.1989 4.25714C13.3699 4.25885 15.9423 6.82852 15.9423 10Z" fill="white"/>
<path d="M39.689 18.4076H35.9346L31.9662 11.5878H29.3524V18.4076H26.1207L26.0969 1.77393H32.5128C34.1445 1.77393 35.4474 2.22145 36.4217 3.1165C37.3959 4.01155 37.8831 5.20363 37.8831 6.69274C37.8831 7.62739 37.6534 8.47096 37.194 9.22343C36.7346 9.97591 36.093 10.5581 35.2692 10.97L39.689 18.4076ZM29.3524 4.55412V8.80561H32.0138C32.8375 8.80561 33.4791 8.61947 33.9385 8.24719C34.3979 7.87492 34.6276 7.3561 34.6276 6.69076C34.6276 6.02541 34.3979 5.50264 33.9385 5.12244C33.4791 4.74224 32.8375 4.55214 32.0138 4.55214H29.3524V4.55412Z" fill="white"/>
<path d="M45.7961 6.23926C47.3961 6.23926 48.6753 6.66302 49.6337 7.51055C50.5922 8.35807 51.0714 9.55807 51.0714 11.1105V18.4056H48.1724V16.6709C47.8397 17.2571 47.3446 17.7244 46.6872 18.0729C46.0298 18.4214 45.3288 18.5957 44.5842 18.5957C43.412 18.5957 42.4535 18.2591 41.709 17.5858C40.9644 16.9125 40.5922 16.061 40.5922 15.0313C40.5922 12.7501 42.3743 11.4195 45.9387 11.0393L48.1724 10.8254V10.7066C48.1724 10.0254 47.9585 9.49074 47.5308 9.10262C47.1031 8.7145 46.5248 8.52045 45.7961 8.52045C45.1466 8.52045 44.604 8.71054 44.1684 9.09074C43.7328 9.47094 43.4833 9.97787 43.4199 10.6115L40.7585 10.1363C40.9486 8.96401 41.5149 8.02144 42.4575 7.30856C43.4001 6.59767 44.513 6.23926 45.7961 6.23926ZM45.2496 16.3878C46.1526 16.3878 46.8654 16.0868 47.3882 15.4848C47.911 14.8828 48.1724 14.1303 48.1724 13.2274V12.964L45.8912 13.2254C45.1149 13.3204 44.5209 13.5185 44.109 13.8195C43.6971 14.1204 43.4912 14.4927 43.4912 14.9363C43.4912 15.364 43.6496 15.7125 43.9664 15.9818C44.2833 16.2531 44.711 16.3878 45.2496 16.3878Z" fill="white"/>
<path d="M59.0556 18.5991C57.2813 18.5991 55.8873 18.0327 54.8734 16.9001C53.8595 15.7674 53.3526 14.2743 53.3526 12.4209C53.3526 10.5674 53.8595 9.07432 54.8734 7.94164C55.8873 6.80897 57.2655 6.24263 59.008 6.24263C60.5447 6.24263 61.7011 6.74956 62.4774 7.76342V1.58521H65.4714V18.409H62.4774V17.0308C62.1764 17.506 61.717 17.8862 61.0991 18.1713C60.4813 18.4565 59.8001 18.5991 59.0556 18.5991ZM59.4833 16.009C60.4496 16.009 61.2219 15.6803 61.8001 15.0228C62.3783 14.3654 62.6675 13.4981 62.6675 12.4209C62.6675 11.3436 62.3783 10.4763 61.8001 9.81887C61.2219 9.16144 60.4496 8.83273 59.4833 8.83273C58.5328 8.83273 57.7684 9.16144 57.1902 9.81887C56.612 10.4763 56.3229 11.3436 56.3229 12.4209C56.3229 13.4981 56.612 14.3654 57.1902 15.0228C57.7665 15.6803 58.5328 16.009 59.4833 16.009Z" fill="white"/>
<path d="M79.6575 12.0135C79.6575 12.4888 79.6416 12.8848 79.6099 13.2016H70.7228C70.8496 14.1046 71.1901 14.8096 71.7446 15.3165C72.2991 15.8234 73.004 16.0769 73.8595 16.0769C74.5565 16.0769 75.1426 15.9185 75.6179 15.6016C76.0931 15.2848 76.41 14.8333 76.5684 14.2472L79.3723 15.0076C79.0396 16.1323 78.3822 17.0115 77.4 17.6452C76.4179 18.2789 75.2218 18.5957 73.8119 18.5957C71.9268 18.5957 70.4416 17.9818 69.3565 16.7541C68.2713 15.5264 67.7288 14.0808 67.7288 12.4175C67.7288 10.7383 68.2476 9.28876 69.2852 8.06896C70.3228 6.84916 71.7763 6.23926 73.6456 6.23926C75.5466 6.23926 77.0238 6.82144 78.0773 7.98579C79.1288 9.15213 79.6575 10.4947 79.6575 12.0135ZM70.7921 11.0155H76.4476C76.3684 10.2709 76.0911 9.66896 75.6159 9.20955C75.1406 8.75015 74.4832 8.52045 73.6436 8.52045C72.8991 8.52045 72.2773 8.73431 71.7783 9.16203C71.2793 9.59173 70.9505 10.2076 70.7921 11.0155Z" fill="white"/>
<path d="M81.9129 18.4076V6.42936H84.907V8.2353C85.303 7.63332 85.8297 7.15015 86.4872 6.78579C87.1446 6.42144 87.8852 6.23926 88.7089 6.23926C90.0238 6.23926 91.0812 6.6353 91.8812 7.42738C92.6812 8.21946 93.0812 9.265 93.0812 10.564V18.4056H90.0872V11.2769C90.0872 10.564 89.8812 9.98975 89.4693 9.55411C89.0575 9.11847 88.503 8.90064 87.806 8.90064C86.8872 8.90064 86.1743 9.27292 85.6674 10.0175C85.1604 10.762 84.907 11.8076 84.907 13.1541V18.4056H81.9129V18.4076Z" fill="white"/>
<path d="M107.03 6.43188V18.4081H104.036V16.6022C103.64 17.2042 103.113 17.6873 102.455 18.0517C101.798 18.416 101.057 18.5982 100.234 18.5982C98.9346 18.5982 97.8811 18.2022 97.0732 17.4101C96.2653 16.618 95.8613 15.5725 95.8613 14.2735V6.43188H98.8554V13.5606C98.8554 14.2735 99.0613 14.8477 99.4732 15.2834C99.8851 15.719 100.44 15.9368 101.137 15.9368C102.055 15.9368 102.768 15.5646 103.275 14.82C103.782 14.0754 104.036 13.0299 104.036 11.6834V6.43188H107.03Z" fill="white"/>
</svg>
